# xmcd
#
# Track frame offsets:
#   150
#   10070
#   24136
#   37890
#   51973
#   70404
#   86975
#   103997
#   118670
#   133727
#   149483
#   161917
#
# Disc length: 2441 seconds
#
# Revision: 0
# Processed by: cddbd v1.5.2PL0 Copyright (c) Steve Scherf et al.
# Submitted via: GXTranscoder 2.0.1939
#
DISCID=aa09870c
DTITLE=Celinho do Acordeon - O Balanço da Gaita
DYEAR=2006
DGENRE=Country
TTITLE0=O Balanço da Gaita
TTITLE1=Onde Tem Rodeio
TTITLE2=Mesmo Apaixonado
TTITLE3=Peão Folgado
TTITLE4=Bilhete no Fole
TTITLE5=Outra Vez
TTITLE6=Sangue da Tradição
TTITLE7=É Paixão
TTITLE8=Morena Bonita
TTITLE9=Na Barra de sua Saia
TTITLE10=Loirinha
TTITLE11=Meu Desespero
EXTD=Forró do Caparaó, no Espírito Santo, Brazil
EXTT0=
EXTT1=
EXTT2=
EXTT3=
EXTT4=
EXTT5=
EXTT6=
EXTT7=
EXTT8=
EXTT9=
EXTT10=
EXTT11=
PLAYORDER=
